<?xml version="1.0" encoding="iso-8859-1"?>
<!-- Generator: Adobe Illustrator 16.0.0, SVG Export Plug-In . SVG Version: 6.00 Build 0)  -->
<!DOCTYPE svg PUBLIC "-//W3C//DTD SVG 1.1//EN" "http://www.w3.org/Graphics/SVG/1.1/DTD/svg11.dtd">
<svg version="1.1" id="Capa_1" xmlns="http://www.w3.org/2000/svg" xmlns:xlink="http://www.w3.org/1999/xlink" x="0px" y="0px"
	 viewBox="0 0 611.995 611.995" style="enable-background:new 0 0 611.995 611.995;"
	 xml:space="preserve">
	<path d="M611.044,213.125l-27.633,68.889c-1.993,4.961-6.771,8.221-12.102,8.289c-0.054,0-0.092,0-0.146,0
		c-5.279,0-10.057-3.142-12.142-8.011l-7.76-18.16L484.709,292.4v167.194c0,32.795-26.591,59.387-59.386,59.387
		s-59.387-26.592-59.387-59.387V342.827l-28.572,12.128v104.627c0,32.796-26.592,59.387-59.387,59.387s-59.386-26.591-59.386-59.374
		v-54.201l-28.599,12.143v42.046c0,32.796-26.591,59.387-59.387,59.387c-30.037,0-54.623-22.383-58.568-51.351l-26.143,11.1
		c-4.21,1.781-8.578,2.625-12.88,2.625c-12.842,0-25.049-7.535-30.38-20.1c-7.125-16.773,0.7-36.135,17.473-43.261l51.112-21.709
		v-89.042c0-32.795,26.591-59.387,59.386-59.387c32.795,0,59.387,26.591,59.387,59.387v38.601l28.599-12.142l-0.012-99.481
		c0-32.795,26.591-59.387,59.387-59.387c32.795,0,59.386,26.592,59.386,59.375v49.054l28.585-12.128l-0.013-118.722
		c0-32.795,26.592-59.387,59.387-59.387s59.387,26.592,59.387,59.387v68.283l40.62-17.248l-7.562-17.685
		c-2.099-4.896-1.042-10.598,2.693-14.41c3.747-3.827,9.41-4.988,14.345-3.021l68.916,27.634c3.245,1.306,5.847,3.841,7.22,7.061
		C612.312,206.25,612.351,209.88,611.044,213.125z" fill="white"/>
</svg>
